<!-- <svg width="177" height="24" viewBox="0 0 177 24" fill="none" xmlns="http://www.w3.org/2000/svg">
<path d="M9.06145 23.1079C5.26816 22.3769 -3.39077 20.6274 1.4173 5.06384C9.6344 6.09939 16.9728 14.0644 9.06145 23.1079Z" fill="url(#paint0_linear_17557_2020)"/>
<path d="M8.91928 23.0939C5.27642 21.2223 0.78371 4.20891 17.0071 0C20.7569 7.19341 19.6212 16.5452 8.91928 23.0939Z" fill="url(#paint1_linear_17557_2020)"/>
<path d="M8.91388 23.0788C8.73534 19.8817 10.1585 9.08525 23.5699 13.1107C23.1812 20.1229 18.984 26.4182 8.91388 23.0788Z" fill="url(#paint2_linear_17557_2020)"/>
<path d="M32.3008 19.3922V3.89432H37.9383L39.925 9.94786C40.0359 10.3154 40.1642 10.7869 40.3098 11.3624C40.4624 11.938 40.6114 12.5516 40.7571 13.2035C40.9096 13.8553 41.0483 14.4828 41.1731 15.0861C41.3049 15.6824 41.4123 16.1921 41.4955 16.6151H40.6946C40.7709 16.1921 40.8715 15.6824 40.9963 15.0861C41.128 14.4897 41.2667 13.8657 41.4123 13.2139C41.5649 12.562 41.714 11.9484 41.8596 11.3728C42.0052 10.7904 42.1335 10.3154 42.2444 9.94786L44.1999 3.89432H49.8478V19.3922H46.1657V12.7042C46.1657 12.3575 46.1726 11.9172 46.1865 11.3832C46.2004 10.8493 46.2143 10.2703 46.2281 9.64623C46.2489 9.02215 46.2663 8.39114 46.2801 7.75319C46.3009 7.11525 46.3113 6.51891 46.3113 5.96418H46.6234C46.4847 6.56052 46.3321 7.18112 46.1657 7.826C45.9993 8.47088 45.8329 9.10189 45.6665 9.71903C45.507 10.3362 45.3509 10.9013 45.1984 11.4144C45.0528 11.9276 44.928 12.3575 44.824 12.7042L42.6085 19.3922H39.5609L37.3142 12.7042C37.2033 12.3575 37.0715 11.9276 36.919 11.4144C36.7734 10.9013 36.6139 10.3396 36.4405 9.72944C36.2741 9.11229 36.1042 8.48128 35.9309 7.8364C35.7644 7.19153 35.6084 6.56745 35.4628 5.96418H35.8269C35.8338 6.51198 35.8442 7.10485 35.8581 7.74279C35.8719 8.3738 35.8858 9.00481 35.8997 9.63582C35.9205 10.2599 35.9378 10.8389 35.9517 11.3728C35.9655 11.9068 35.9725 12.3506 35.9725 12.7042V19.3922H32.3008ZM51.6684 19.3922V8.02363H55.288V19.3922H51.6684ZM53.4678 6.78588C52.927 6.78588 52.4728 6.61599 52.1053 6.27621C51.7377 5.92951 51.554 5.50652 51.554 5.00726C51.554 4.508 51.7377 4.08848 52.1053 3.74871C52.4728 3.40893 52.927 3.23904 53.4678 3.23904C54.0087 3.23904 54.4629 3.40893 54.8304 3.74871C55.1979 4.08155 55.3817 4.50107 55.3817 5.00726C55.3817 5.50652 55.1979 5.92951 54.8304 6.27621C54.4629 6.61599 54.0087 6.78588 53.4678 6.78588ZM60.7075 13.0266V19.3922H57.0879V8.02363H60.5515L60.5931 10.9672H60.2811C60.5931 10.0241 61.0612 9.26831 61.6852 8.69971C62.3093 8.12417 63.1379 7.8364 64.1711 7.8364C64.9755 7.8364 65.6724 8.01669 66.2618 8.37727C66.8512 8.73091 67.3019 9.23364 67.614 9.88545C67.9329 10.5373 68.0924 11.307 68.0924 12.1945V19.3922H64.4832V12.9122C64.4832 12.2604 64.3202 11.7542 63.9943 11.3936C63.6753 11.0331 63.2212 10.8528 62.6318 10.8528C62.2504 10.8528 61.9141 10.936 61.6228 11.1024C61.3316 11.2688 61.1062 11.515 60.9467 11.8409C60.7873 12.1599 60.7075 12.5551 60.7075 13.0266ZM76.4555 8.02363V10.7488H69.0081V8.02363H76.4555ZM70.6828 5.16328H74.292V15.783C74.292 16.1019 74.3613 16.3342 74.5 16.4799C74.6456 16.6255 74.8987 16.6983 75.2593 16.6983C75.4049 16.6983 75.5956 16.6879 75.8314 16.6671C76.0741 16.6463 76.2509 16.6289 76.3618 16.6151L76.6323 19.309C76.3133 19.3783 75.9631 19.4269 75.5817 19.4546C75.2073 19.4824 74.8363 19.4962 74.4688 19.4962C73.1999 19.4962 72.2499 19.2223 71.6189 18.6745C70.9948 18.1267 70.6828 17.3085 70.6828 16.2198V5.16328Z" fill="#09090B"/>
<path d="M88.6674 19.6522C87.5232 19.6522 86.5282 19.4581 85.6822 19.0698C84.8432 18.6815 84.1879 18.1371 83.7164 17.4368C83.2448 16.7364 82.9917 15.9078 82.9571 14.9509H84.9333C84.968 15.5957 85.1483 16.1401 85.4742 16.5839C85.8001 17.0207 86.2404 17.3536 86.7951 17.5824C87.3499 17.8043 87.974 17.9152 88.6674 17.9152C89.3885 17.9152 90.0265 17.8008 90.5812 17.572C91.1429 17.3432 91.5832 17.0242 91.9022 16.6151C92.2281 16.199 92.391 15.7171 92.391 15.1693C92.391 14.6978 92.2662 14.306 92.0166 13.994C91.7669 13.675 91.4133 13.408 90.9556 13.1931C90.498 12.9781 89.9537 12.7874 89.3227 12.621L87.5024 12.1321C86.1225 11.7646 85.0824 11.255 84.382 10.6031C83.6886 9.94439 83.3419 9.09496 83.3419 8.05483C83.3419 7.17419 83.5708 6.4045 84.0284 5.74575C84.4861 5.087 85.1171 4.57734 85.9214 4.21676C86.7258 3.84925 87.6446 3.6655 88.6778 3.6655C89.7179 3.6655 90.6297 3.85272 91.4133 4.22717C92.2038 4.60161 92.8244 5.12167 93.2751 5.78736C93.7259 6.4461 93.9651 7.20886 93.9928 8.07563H92.0894C92.0131 7.22966 91.656 6.57438 91.0181 6.10979C90.387 5.63827 89.5861 5.40251 88.6154 5.40251C87.9497 5.40251 87.3603 5.51346 86.8471 5.73535C86.341 5.95724 85.9457 6.26235 85.6614 6.65066C85.3771 7.03204 85.235 7.46889 85.235 7.96122C85.235 8.44661 85.3771 8.84879 85.6614 9.16777C85.9457 9.4798 86.3167 9.73984 86.7743 9.94786C87.232 10.149 87.7243 10.3188 88.2513 10.4575L89.8843 10.884C90.4391 11.0227 90.9765 11.2064 91.4965 11.4352C92.0235 11.6571 92.495 11.9345 92.9111 12.2673C93.3341 12.5933 93.6704 12.9954 93.92 13.4739C94.1696 13.9454 94.2945 14.5036 94.2945 15.1485C94.2945 16.0153 94.0656 16.7884 93.608 17.468C93.1573 18.1475 92.5124 18.6815 91.6733 19.0698C90.8343 19.4581 89.8323 19.6522 88.6674 19.6522ZM101.097 8.02363V9.59422H95.1062V8.02363H101.097ZM96.9368 5.16328H98.7674V16.5215C98.7674 16.9999 98.8645 17.3466 99.0587 17.5616C99.2597 17.7696 99.5995 17.8736 100.078 17.8736C100.21 17.8736 100.366 17.8667 100.546 17.8528C100.733 17.832 100.903 17.8147 101.056 17.8008L101.285 19.3506C101.097 19.3922 100.886 19.4234 100.65 19.4442C100.414 19.465 100.189 19.4754 99.974 19.4754C98.9962 19.4754 98.2439 19.2362 97.7169 18.7577C97.1968 18.2723 96.9368 17.5789 96.9368 16.6775V5.16328ZM106.33 19.621C105.595 19.621 104.932 19.4893 104.343 19.2258C103.754 18.9554 103.285 18.5636 102.939 18.0504C102.592 17.5304 102.419 16.8959 102.419 16.147C102.419 15.4952 102.547 14.9647 102.804 14.5556C103.06 14.1465 103.403 13.8275 103.833 13.5987C104.263 13.3629 104.742 13.1861 105.269 13.0682C105.796 12.9504 106.333 12.8567 106.881 12.7874C107.574 12.6903 108.132 12.6175 108.555 12.569C108.978 12.5204 109.287 12.4407 109.481 12.3298C109.675 12.2119 109.772 12.0142 109.772 11.7369V11.6537C109.772 11.2029 109.679 10.8146 109.492 10.4887C109.311 10.1628 109.041 9.90972 108.68 9.72944C108.32 9.54915 107.872 9.459 107.338 9.459C106.805 9.459 106.34 9.54568 105.945 9.71903C105.556 9.89239 105.241 10.1177 104.998 10.3951C104.755 10.6655 104.593 10.9533 104.509 11.2584L102.71 10.9152C102.897 10.2218 103.22 9.64969 103.677 9.19897C104.135 8.74825 104.679 8.41194 105.31 8.19005C105.941 7.96815 106.607 7.85721 107.307 7.85721C107.8 7.85721 108.295 7.91961 108.795 8.04443C109.301 8.16925 109.765 8.38074 110.188 8.67891C110.611 8.97014 110.951 9.36886 111.208 9.87505C111.464 10.3743 111.593 11.0053 111.593 11.7681V19.3922H109.793V17.8216H109.7C109.568 18.0851 109.363 18.359 109.086 18.6433C108.809 18.9207 108.444 19.153 107.994 19.3402C107.543 19.5274 106.988 19.621 106.33 19.621ZM106.621 17.9984C107.321 17.9984 107.904 17.8667 108.368 17.6032C108.84 17.3328 109.19 16.9861 109.419 16.5631C109.654 16.1331 109.772 15.6824 109.772 15.2109V13.6923C109.703 13.7686 109.554 13.8414 109.325 13.9107C109.096 13.9732 108.829 14.0321 108.524 14.0876C108.226 14.143 107.921 14.1916 107.609 14.2332C107.304 14.2748 107.033 14.3095 106.798 14.3372C106.354 14.3927 105.938 14.4897 105.549 14.6284C105.168 14.7602 104.86 14.9543 104.624 15.2109C104.388 15.4675 104.27 15.8107 104.27 16.2406C104.27 16.6151 104.367 16.934 104.561 17.1975C104.762 17.461 105.04 17.6621 105.393 17.8008C105.747 17.9326 106.156 17.9984 106.621 17.9984ZM114.193 19.3922V8.02363H115.951V9.79184H116.045C116.253 9.20937 116.61 8.74131 117.116 8.38767C117.622 8.03403 118.219 7.85721 118.905 7.85721C119.058 7.85721 119.217 7.86414 119.384 7.87801C119.55 7.88494 119.682 7.89188 119.779 7.89881V9.73984C119.716 9.71903 119.578 9.69476 119.363 9.66703C119.155 9.63929 118.922 9.62542 118.666 9.62542C118.174 9.62542 117.726 9.7329 117.324 9.94786C116.922 10.1628 116.603 10.4714 116.367 10.8736C116.138 11.2758 116.024 11.7577 116.024 12.3194V19.3922H114.193ZM126.322 8.02363V9.59422H120.33V8.02363H126.322ZM122.161 5.16328H123.992V16.5215C123.992 16.9999 124.089 17.3466 124.283 17.5616C124.484 17.7696 124.824 17.8736 125.302 17.8736C125.434 17.8736 125.59 17.8667 125.77 17.8528C125.958 17.832 126.127 17.8147 126.28 17.8008L126.509 19.3506C126.322 19.3922 126.11 19.4234 125.874 19.4442C125.639 19.465 125.413 19.4754 125.198 19.4754C124.221 19.4754 123.468 19.2362 122.941 18.7577C122.421 18.2723 122.161 17.5789 122.161 16.6775V5.16328ZM132.604 19.6418C131.502 19.6418 130.555 19.3957 129.765 18.9034C128.974 18.4041 128.364 17.7141 127.934 16.8335C127.511 15.9459 127.3 14.9266 127.3 13.7755C127.3 12.6106 127.511 11.5843 127.934 10.6968C128.364 9.80224 128.964 9.10189 129.734 8.5957C130.51 8.0895 131.408 7.8364 132.428 7.8364C133.1 7.8364 133.738 7.95429 134.341 8.19005C134.952 8.42581 135.489 8.78292 135.954 9.26138C136.425 9.73984 136.793 10.3431 137.056 11.0712C137.327 11.7924 137.462 12.6453 137.462 13.6299V14.2956H128.433V12.7354H136.463L135.631 13.2971C135.631 12.5412 135.506 11.8756 135.257 11.3C135.007 10.7245 134.643 10.2772 134.165 9.95826C133.686 9.63236 133.107 9.4694 132.428 9.4694C131.748 9.4694 131.162 9.63236 130.67 9.95826C130.177 10.2842 129.796 10.7245 129.526 11.2792C129.262 11.827 129.13 12.4407 129.13 13.1202V14.046C129.13 14.8642 129.273 15.5715 129.557 16.1678C129.841 16.7572 130.243 17.2114 130.763 17.5304C131.283 17.8424 131.901 17.9984 132.615 17.9984C133.093 17.9984 133.523 17.9291 133.905 17.7904C134.293 17.6448 134.619 17.4333 134.882 17.1559C135.153 16.8786 135.354 16.5457 135.486 16.1574L137.275 16.4487C137.108 17.0797 136.81 17.6344 136.38 18.1129C135.95 18.5913 135.413 18.9658 134.768 19.2362C134.123 19.5066 133.402 19.6418 132.604 19.6418ZM139.459 19.3922V8.02363H141.217V9.79184H141.311C141.519 9.20937 141.876 8.74131 142.382 8.38767C142.888 8.03403 143.485 7.85721 144.171 7.85721C144.324 7.85721 144.483 7.86414 144.649 7.87801C144.816 7.88494 144.948 7.89188 145.045 7.89881V9.73984C144.982 9.71903 144.844 9.69476 144.629 9.66703C144.421 9.63929 144.188 9.62542 143.932 9.62542C143.439 9.62542 142.992 9.7329 142.59 9.94786C142.188 10.1628 141.869 10.4714 141.633 10.8736C141.404 11.2758 141.29 11.7577 141.29 12.3194V19.3922H139.459ZM153.429 14.9613V12.7146C153.783 12.2569 154.136 11.8201 154.49 11.404C154.844 10.9811 155.204 10.565 155.572 10.1559C155.939 9.73984 156.314 9.32725 156.695 8.91814L161.355 3.89432H163.893L157.277 10.9672H157.184L153.429 14.9613ZM152.108 19.3922V3.89432H154.043V9.24058L154.022 12.5586L154.043 13.5051V19.3922H152.108ZM161.615 19.3922L155.967 11.4768L157.173 9.96866L163.903 19.3922H161.615ZM165.661 19.3922V8.02363H167.492V19.3922H165.661ZM166.587 6.02658C166.24 6.02658 165.942 5.9087 165.692 5.67294C165.443 5.43025 165.318 5.13901 165.318 4.79923C165.318 4.45946 165.443 4.17169 165.692 3.93593C165.942 3.69323 166.24 3.57189 166.587 3.57189C166.934 3.57189 167.232 3.69323 167.482 3.93593C167.731 4.17169 167.856 4.45946 167.856 4.79923C167.856 5.13901 167.731 5.43025 167.482 5.67294C167.232 5.9087 166.934 6.02658 166.587 6.02658ZM174.836 8.02363V9.59422H168.844V8.02363H174.836ZM170.675 5.16328H172.506V16.5215C172.506 16.9999 172.603 17.3466 172.797 17.5616C172.998 17.7696 173.338 17.8736 173.816 17.8736C173.948 17.8736 174.104 17.8667 174.284 17.8528C174.472 17.832 174.641 17.8147 174.794 17.8008L175.023 19.3506C174.836 19.3922 174.624 19.4234 174.388 19.4442C174.153 19.465 173.927 19.4754 173.712 19.4754C172.735 19.4754 171.982 19.2362 171.455 18.7577C170.935 18.2723 170.675 17.5789 170.675 16.6775V5.16328Z" fill="#52525C"/>
<defs>
<linearGradient id="paint0_linear_17557_2020" x1="3.77557" y1="5.91571" x2="5.23185" y2="21.5589" gradientUnits="userSpaceOnUse">
<stop stop-color="#18E299"/>
<stop offset="1" stop-color="#15803D"/>
</linearGradient>
<linearGradient id="paint1_linear_17557_2020" x1="12.1711" y1="-0.718425" x2="10.1897" y2="22.9832" gradientUnits="userSpaceOnUse">
<stop stop-color="#16A34A"/>
<stop offset="1" stop-color="#4ADE80"/>
</linearGradient>
<linearGradient id="paint2_linear_17557_2020" x1="23.1327" y1="15.353" x2="9.33841" y2="18.5196" gradientUnits="userSpaceOnUse">
<stop stop-color="#4ADE80"/>
<stop offset="1" stop-color="#0D9373"/>
</linearGradient>
</defs>
</svg> -->

<!-- <svg xmlns="http://www.w3.org/2000/svg" width="48" height="48" viewBox="0 0 48 48"><path fill="currentColor" stroke="currentColor" stroke-linecap="round" stroke-linejoin="round" stroke-width="4" d="M8 7.282L19.556 4v12.718L8 20zm0 18.393l11.556-3.282v12.718L8 38.393zm16.889-4.599l11.555-2.854v22.924L24.89 44z"/></svg> -->

<svg xmlns="http://www.w3.org/2000/svg" width="516" height="60" viewBox="0 0 516 60" fill="none">
<path d="M-0.000195295 44.1001V0.900096H13.1098C13.5698 0.900096 14.3498 0.910096 15.4498 0.930097C16.5698 0.950096 17.6398 1.03009 18.6598 1.17009C21.9398 1.63009 24.6798 2.8501 26.8798 4.8301C29.0798 6.8101 30.7298 9.3301 31.8298 12.3901C32.9298 15.4501 33.4798 18.8201 33.4798 22.5001C33.4798 26.1801 32.9298 29.5501 31.8298 32.6101C30.7298 35.6701 29.0798 38.1901 26.8798 40.1701C24.6798 42.1501 21.9398 43.3701 18.6598 43.8301C17.6598 43.9501 16.5898 44.0301 15.4498 44.0701C14.3098 44.0901 13.5298 44.1001 13.1098 44.1001H-0.000195295ZM4.55981 39.8701H13.1098C13.9298 39.8701 14.8098 39.8501 15.7498 39.8101C16.7098 39.7501 17.5298 39.6501 18.2098 39.5101C20.7298 39.0701 22.7598 38.0501 24.2998 36.4501C25.8598 34.8501 26.9998 32.8501 27.7198 30.4501C28.4398 28.0301 28.7998 25.3801 28.7998 22.5001C28.7998 19.6001 28.4398 16.9401 27.7198 14.5201C26.9998 12.1001 25.8598 10.1001 24.2998 8.52009C22.7398 6.94009 20.7098 5.93009 18.2098 5.4901C17.5298 5.3501 16.6998 5.2601 15.7198 5.2201C14.7598 5.1601 13.8898 5.1301 13.1098 5.1301H4.55981V39.8701ZM54.0223 45.0001C50.8623 45.0001 48.1223 44.3001 45.8023 42.9001C43.5023 41.5001 41.7123 39.5301 40.4323 36.9901C39.1523 34.4501 38.5123 31.4701 38.5123 28.0501C38.5123 24.5101 39.1423 21.4501 40.4023 18.8701C41.6623 16.2901 43.4323 14.3001 45.7123 12.9001C48.0123 11.5001 50.7223 10.8001 53.8423 10.8001C57.0423 10.8001 59.7723 11.5401 62.0323 13.0201C64.2923 14.4801 66.0023 16.5801 67.1623 19.3201C68.3223 22.0601 68.8523 25.3301 68.7523 29.1301H64.2523V27.5701C64.1723 23.3701 63.2623 20.2001 61.5223 18.0601C59.8023 15.9201 57.2823 14.8501 53.9623 14.8501C50.4823 14.8501 47.8123 15.9801 45.9523 18.2401C44.1123 20.5001 43.1923 23.7201 43.1923 27.9001C43.1923 31.9801 44.1123 35.1501 45.9523 37.4101C47.8123 39.6501 50.4423 40.7701 53.8423 40.7701C56.1623 40.7701 58.1823 40.2401 59.9023 39.1801C61.6423 38.1001 63.0123 36.5501 64.0123 34.5301L68.1223 36.1201C66.8423 38.9401 64.9523 41.1301 62.4523 42.6901C59.9723 44.2301 57.1623 45.0001 54.0223 45.0001ZM41.6323 29.1301V25.4401H66.3823V29.1301H41.6323ZM87.5 44.9701C83.7 44.9701 80.57 44.1501 78.11 42.5101C75.67 40.8701 74.17 38.5901 73.61 35.6701L78.11 34.9201C78.59 36.7601 79.68 38.2301 81.38 39.3301C83.1 40.4101 85.22 40.9501 87.74 40.9501C90.2 40.9501 92.14 40.4401 93.56 39.4201C94.98 38.3801 95.69 36.9701 95.69 35.1901C95.69 34.1901 95.46 33.3801 95 32.7601C94.56 32.1201 93.65 31.5301 92.27 30.9901C90.89 30.4501 88.83 29.8101 86.09 29.0701C83.15 28.2701 80.85 27.4701 79.19 26.6701C77.53 25.8701 76.35 24.9501 75.65 23.9101C74.95 22.8501 74.6 21.5601 74.6 20.0401C74.6 18.2001 75.12 16.5901 76.16 15.2101C77.2 13.8101 78.64 12.7301 80.48 11.9701C82.32 11.1901 84.46 10.8001 86.9 10.8001C89.34 10.8001 91.52 11.2001 93.44 12.0001C95.38 12.7801 96.94 13.8801 98.12 15.3001C99.3 16.7201 100 18.3701 100.22 20.2501L95.72 21.0601C95.42 19.1601 94.47 17.6601 92.87 16.5601C91.29 15.4401 89.28 14.8601 86.84 14.8201C84.54 14.7601 82.67 15.2001 81.23 16.1401C79.79 17.0601 79.07 18.2901 79.07 19.8301C79.07 20.6901 79.33 21.4301 79.85 22.0501C80.37 22.6501 81.31 23.2201 82.67 23.7601C84.05 24.3001 86.01 24.8901 88.55 25.5301C91.53 26.2901 93.87 27.0901 95.57 27.9301C97.27 28.7701 98.48 29.7601 99.2 30.9001C99.92 32.0401 100.28 33.4501 100.28 35.1301C100.28 38.1901 99.14 40.6001 96.86 42.3601C94.6 44.1001 91.48 44.9701 87.5 44.9701ZM107.533 5.5501V0.600096H111.943V5.5501H107.533ZM107.533 44.1001V11.7001H111.943V44.1001H107.533ZM133.807 59.4001C132.147 59.4001 130.507 59.1501 128.887 58.6501C127.287 58.1701 125.807 57.4001 124.447 56.3401C123.087 55.3001 121.947 53.9401 121.027 52.2601L125.017 50.0401C125.917 51.8401 127.177 53.1301 128.797 53.9101C130.437 54.7101 132.107 55.1101 133.807 55.1101C136.147 55.1101 138.037 54.6701 139.477 53.7901C140.937 52.9301 141.997 51.6501 142.657 49.9501C143.317 48.2501 143.637 46.1301 143.617 43.5901V34.9501H144.127V11.7001H148.057V43.6501C148.057 44.5701 148.027 45.4501 147.967 46.2901C147.927 47.1501 147.837 47.9901 147.697 48.8101C147.317 51.2301 146.527 53.2201 145.327 54.7801C144.147 56.3401 142.587 57.5001 140.647 58.2601C138.727 59.0201 136.447 59.4001 133.807 59.4001ZM133.507 45.0001C130.487 45.0001 127.907 44.2501 125.767 42.7501C123.627 41.2301 121.987 39.1801 120.847 36.6001C119.707 34.0201 119.137 31.1101 119.137 27.8701C119.137 24.6501 119.697 21.7501 120.817 19.1701C121.957 16.5901 123.587 14.5501 125.707 13.0501C127.827 11.5501 130.367 10.8001 133.327 10.8001C136.367 10.8001 138.927 11.5401 141.007 13.0201C143.087 14.5001 144.657 16.5301 145.717 19.1101C146.797 21.6701 147.337 24.5901 147.337 27.8701C147.337 31.0901 146.807 34.0001 145.747 36.6001C144.687 39.1801 143.127 41.2301 141.067 42.7501C139.007 44.2501 136.487 45.0001 133.507 45.0001ZM133.957 40.8901C136.257 40.8901 138.157 40.3301 139.657 39.2101C141.157 38.0901 142.277 36.5501 143.017 34.5901C143.757 32.6101 144.127 30.3701 144.127 27.8701C144.127 25.3301 143.757 23.0901 143.017 21.1501C142.277 19.1901 141.157 17.6601 139.657 16.5601C138.177 15.4601 136.307 14.9101 134.047 14.9101C131.727 14.9101 129.807 15.4801 128.287 16.6201C126.767 17.7601 125.637 19.3101 124.897 21.2701C124.177 23.2301 123.817 25.4301 123.817 27.8701C123.817 30.3301 124.187 32.5501 124.927 34.5301C125.687 36.4901 126.817 38.0401 128.317 39.1801C129.817 40.3201 131.697 40.8901 133.957 40.8901ZM179.845 44.1001V27.5701C179.845 25.7701 179.675 24.1201 179.335 22.6201C178.995 21.1001 178.445 19.7801 177.685 18.6601C176.945 17.5201 175.975 16.6401 174.775 16.0201C173.595 15.4001 172.155 15.0901 170.455 15.0901C168.895 15.0901 167.515 15.3601 166.315 15.9001C165.135 16.4401 164.135 17.2201 163.315 18.2401C162.515 19.2401 161.905 20.4601 161.485 21.9001C161.065 23.3401 160.855 24.9801 160.855 26.8201L157.735 26.1301C157.735 22.8101 158.315 20.0201 159.475 17.7601C160.635 15.5001 162.235 13.7901 164.275 12.6301C166.315 11.4701 168.655 10.8901 171.295 10.8901C173.235 10.8901 174.925 11.1901 176.365 11.7901C177.825 12.3901 179.055 13.2001 180.055 14.2201C181.075 15.2401 181.895 16.4101 182.515 17.7301C183.135 19.0301 183.585 20.4201 183.865 21.9001C184.145 23.3601 184.285 24.8201 184.285 26.2801V44.1001H179.845ZM156.415 44.1001V11.7001H160.405V19.6801H160.855V44.1001H156.415ZM206.62 45.0001C203.64 45.0001 201.12 44.2501 199.06 42.7501C197 41.2301 195.44 39.1801 194.38 36.6001C193.32 34.0001 192.79 31.0901 192.79 27.8701C192.79 24.5901 193.32 21.6701 194.38 19.1101C195.46 16.5301 197.04 14.5001 199.12 13.0201C201.2 11.5401 203.76 10.8001 206.8 10.8001C209.76 10.8001 212.3 11.5501 214.42 13.0501C216.54 14.5501 218.16 16.5901 219.28 19.1701C220.42 21.7501 220.99 24.6501 220.99 27.8701C220.99 31.1101 220.42 34.0201 219.28 36.6001C218.14 39.1801 216.5 41.2301 214.36 42.7501C212.22 44.2501 209.64 45.0001 206.62 45.0001ZM192.04 44.1001V0.900096H196.48V19.7101H196V44.1001H192.04ZM206.17 40.8901C208.43 40.8901 210.31 40.3201 211.81 39.1801C213.31 38.0401 214.43 36.4901 215.17 34.5301C215.93 32.5501 216.31 30.3301 216.31 27.8701C216.31 25.4301 215.94 23.2301 215.2 21.2701C214.46 19.3101 213.33 17.7601 211.81 16.6201C210.31 15.4801 208.4 14.9101 206.08 14.9101C203.82 14.9101 201.94 15.4601 200.44 16.5601C198.96 17.6601 197.85 19.1901 197.11 21.1501C196.37 23.0901 196 25.3301 196 27.8701C196 30.3701 196.37 32.6101 197.11 34.5901C197.85 36.5501 198.97 38.0901 200.47 39.2101C201.97 40.3301 203.87 40.8901 206.17 40.8901ZM230.616 58.5001L236.886 41.4901L236.976 46.5301L222.786 11.7001H227.466L239.106 40.8301H237.186L247.926 11.7001H252.426L235.026 58.5001H230.616ZM257.637 44.1001V0.900096H284.637V5.1301H262.047V20.0701H281.037V24.3001H262.047V39.8701H284.637V44.1001H257.637ZM288.255 44.1001L300.915 27.7201L288.525 11.7001H293.805L303.495 24.3301L313.095 11.7001H318.375L305.985 27.7201L318.675 44.1001H313.365L303.495 31.1101L293.565 44.1001H288.255ZM331.594 45.0001C329.154 45.0001 327.104 44.5601 325.444 43.6801C323.804 42.8001 322.574 41.6301 321.754 40.1701C320.934 38.7101 320.524 37.1201 320.524 35.4001C320.524 33.6401 320.874 32.1401 321.574 30.9001C322.294 29.6401 323.264 28.6101 324.484 27.8101C325.724 27.0101 327.154 26.4001 328.774 25.9801C330.414 25.5801 332.224 25.2301 334.204 24.9301C336.204 24.6101 338.154 24.3401 340.054 24.1201C341.974 23.8801 343.654 23.6501 345.094 23.4301L343.534 24.3901C343.594 21.1901 342.974 18.8201 341.674 17.2801C340.374 15.7401 338.114 14.9701 334.894 14.9701C332.674 14.9701 330.794 15.4701 329.254 16.4701C327.734 17.4701 326.664 19.0501 326.044 21.2101L321.754 19.9501C322.494 17.0501 323.984 14.8001 326.224 13.2001C328.464 11.6001 331.374 10.8001 334.954 10.8001C337.914 10.8001 340.424 11.3601 342.484 12.4801C344.564 13.5801 346.034 15.1801 346.894 17.2801C347.294 18.2201 347.554 19.2701 347.674 20.4301C347.794 21.5901 347.854 22.7701 347.854 23.9701V44.1001H343.924V35.9701L345.064 36.4501C343.964 39.2301 342.254 41.3501 339.934 42.8101C337.614 44.2701 334.834 45.0001 331.594 45.0001ZM332.104 41.1901C334.164 41.1901 335.964 40.8201 337.504 40.0801C339.044 39.3401 340.284 38.3301 341.224 37.0501C342.164 35.7501 342.774 34.2901 343.054 32.6701C343.294 31.6301 343.424 30.4901 343.444 29.2501C343.464 27.9901 343.474 27.0501 343.474 26.4301L345.154 27.3001C343.654 27.5001 342.024 27.7001 340.264 27.9001C338.524 28.1001 336.804 28.3301 335.104 28.5901C333.424 28.8501 331.904 29.1601 330.544 29.5201C329.624 29.7801 328.734 30.1501 327.874 30.6301C327.014 31.0901 326.304 31.7101 325.744 32.4901C325.204 33.2701 324.934 34.2401 324.934 35.4001C324.934 36.3401 325.164 37.2501 325.624 38.1301C326.104 39.0101 326.864 39.7401 327.904 40.3201C328.964 40.9001 330.364 41.1901 332.104 41.1901ZM394.304 44.1001L394.334 22.8301C394.334 20.3301 393.634 18.3701 392.234 16.9501C390.854 15.5101 389.094 14.7901 386.954 14.7901C385.734 14.7901 384.544 15.0701 383.384 15.6301C382.224 16.1901 381.264 17.0901 380.504 18.3301C379.764 19.5701 379.394 21.1901 379.394 23.1901L376.784 22.4401C376.724 20.1201 377.174 18.0901 378.134 16.3501C379.114 14.6101 380.454 13.2601 382.154 12.3001C383.874 11.3201 385.814 10.8301 387.974 10.8301C391.234 10.8301 393.844 11.8401 395.804 13.8601C397.764 15.8601 398.744 18.5701 398.744 21.9901L398.714 44.1001H394.304ZM355.634 44.1001V11.7001H359.594V19.6801H360.074V44.1001H355.634ZM375.014 44.1001L375.044 23.1301C375.044 20.5501 374.354 18.5201 372.974 17.0401C371.614 15.5401 369.814 14.7901 367.574 14.7901C365.334 14.7901 363.524 15.5601 362.144 17.1001C360.764 18.6201 360.074 20.6501 360.074 23.1901L357.434 21.7501C357.434 19.6701 357.924 17.8101 358.904 16.1701C359.884 14.5101 361.224 13.2101 362.924 12.2701C364.624 11.3101 366.554 10.8301 368.714 10.8301C370.774 10.8301 372.604 11.2701 374.204 12.1501C375.824 13.0301 377.094 14.3101 378.014 15.9901C378.934 17.6701 379.394 19.7101 379.394 22.1101L379.364 44.1001H375.014ZM421.073 45.0001C418.093 45.0001 415.573 44.2501 413.513 42.7501C411.453 41.2301 409.893 39.1801 408.833 36.6001C407.773 34.0001 407.243 31.0901 407.243 27.8701C407.243 24.5901 407.773 21.6701 408.833 19.1101C409.913 16.5301 411.493 14.5001 413.573 13.0201C415.653 11.5401 418.213 10.8001 421.253 10.8001C424.213 10.8001 426.753 11.5501 428.873 13.0501C430.993 14.5501 432.613 16.5901 433.733 19.1701C434.873 21.7501 435.443 24.6501 435.443 27.8701C435.443 31.1101 434.873 34.0201 433.733 36.6001C432.593 39.1801 430.953 41.2301 428.813 42.7501C426.673 44.2501 424.093 45.0001 421.073 45.0001ZM406.493 58.5001V11.7001H410.453V36.0901H410.933V58.5001H406.493ZM420.623 40.8901C422.883 40.8901 424.763 40.3201 426.263 39.1801C427.763 38.0401 428.883 36.4901 429.623 34.5301C430.383 32.5501 430.763 30.3301 430.763 27.8701C430.763 25.4301 430.393 23.2301 429.653 21.2701C428.913 19.3101 427.783 17.7601 426.263 16.6201C424.763 15.4801 422.853 14.9101 420.533 14.9101C418.273 14.9101 416.393 15.4601 414.893 16.5601C413.413 17.6601 412.303 19.1901 411.563 21.1501C410.823 23.0901 410.453 25.3301 410.453 27.8701C410.453 30.3701 410.823 32.6101 411.563 34.5901C412.303 36.5501 413.423 38.0901 414.923 39.2101C416.423 40.3301 418.323 40.8901 420.623 40.8901ZM442.631 44.1001V9.67979e-05H447.041V44.1001H442.631ZM469.745 45.0001C466.585 45.0001 463.845 44.3001 461.525 42.9001C459.225 41.5001 457.435 39.5301 456.155 36.9901C454.875 34.4501 454.235 31.4701 454.235 28.0501C454.235 24.5101 454.865 21.4501 456.125 18.8701C457.385 16.2901 459.155 14.3001 461.435 12.9001C463.735 11.5001 466.445 10.8001 469.565 10.8001C472.765 10.8001 475.495 11.5401 477.755 13.0201C480.015 14.4801 481.725 16.5801 482.885 19.3201C484.045 22.0601 484.575 25.3301 484.475 29.1301H479.975V27.5701C479.895 23.3701 478.985 20.2001 477.245 18.0601C475.525 15.9201 473.005 14.8501 469.685 14.8501C466.205 14.8501 463.535 15.9801 461.675 18.2401C459.835 20.5001 458.915 23.7201 458.915 27.9001C458.915 31.9801 459.835 35.1501 461.675 37.4101C463.535 39.6501 466.165 40.7701 469.565 40.7701C471.885 40.7701 473.905 40.2401 475.625 39.1801C477.365 38.1001 478.735 36.5501 479.735 34.5301L483.845 36.1201C482.565 38.9401 480.675 41.1301 478.175 42.6901C475.695 44.2301 472.885 45.0001 469.745 45.0001ZM457.355 29.1301V25.4401H482.105V29.1301H457.355ZM503.223 44.9701C499.423 44.9701 496.293 44.1501 493.833 42.5101C491.393 40.8701 489.893 38.5901 489.333 35.6701L493.833 34.9201C494.313 36.7601 495.403 38.2301 497.103 39.3301C498.823 40.4101 500.943 40.9501 503.463 40.9501C505.923 40.9501 507.863 40.4401 509.283 39.4201C510.703 38.3801 511.413 36.9701 511.413 35.1901C511.413 34.1901 511.183 33.3801 510.723 32.7601C510.283 32.1201 509.373 31.5301 507.993 30.9901C506.613 30.4501 504.553 29.8101 501.813 29.0701C498.873 28.2701 496.573 27.4701 494.913 26.6701C493.253 25.8701 492.073 24.9501 491.373 23.9101C490.673 22.8501 490.323 21.5601 490.323 20.0401C490.323 18.2001 490.843 16.5901 491.883 15.2101C492.923 13.8101 494.363 12.7301 496.203 11.9701C498.043 11.1901 500.183 10.8001 502.623 10.8001C505.063 10.8001 507.243 11.2001 509.163 12.0001C511.103 12.7801 512.663 13.8801 513.843 15.3001C515.023 16.7201 515.723 18.3701 515.943 20.2501L511.443 21.0601C511.143 19.1601 510.193 17.6601 508.593 16.5601C507.013 15.4401 505.003 14.8601 502.563 14.8201C500.263 14.7601 498.393 15.2001 496.953 16.1401C495.513 17.0601 494.793 18.2901 494.793 19.8301C494.793 20.6901 495.053 21.4301 495.573 22.0501C496.093 22.6501 497.033 23.2201 498.393 23.7601C499.773 24.3001 501.733 24.8901 504.273 25.5301C507.253 26.2901 509.593 27.0901 511.293 27.9301C512.993 28.7701 514.203 29.7601 514.923 30.9001C515.643 32.0401 516.003 33.4501 516.003 35.1301C516.003 38.1901 514.863 40.6001 512.583 42.3601C510.323 44.1001 507.203 44.9701 503.223 44.9701Z" fill="black"/>
</svg>